# xmcd
#
# Track frame offsets:
#   150
#   12301
#   22365
#   36900
#   50857
#   59595
#   70774
#   81973
#   93873
#   107762
#   119323
#   130960
#   142650
#   154272
#   167606
#   179167
#   190062
#   200516
#   213258
#   226079
#   238725
#   251947
#   266392
#
# Disc length: 3678 seconds
#
# Revision: 0
# Processed by: cddbd v1.4PL0 Copyright (c) Steve Scherf et al.
# Submitted via: uFREEDB 1.6.0
#
DISCID=500e5c17
DTITLE=Martin, Dean - Tracks 1950
DYEAR=1900
DGENRE=Vocals
TTITLE0=Rain
TTITLE1=Zing-A Zing-A Zing-Boom
TTITLE2=I'm Gonna Paper All My Walls With Your Love Letter
TTITLE3=Muskrat Ramble
TTITLE4=I Don't Care If The Sun Don't Shine
TTITLE5=Choo 'N Gum
TTITLE6=Be Honest With Me
TTITLE7=I Still Get A Thrill
TTITLE8=Bye Bye Blackbird
TTITLE9=Happy Feet
TTITLE10=Baby, Obey Me
TTITLE11=I'll Always Love You
TTITLE12=The Darktown Strutter's Ball
TTITLE13=I'm In Love With You (with Margaret Whiting)
TTITLE14=Don't Rock The Boat, Dear (with Margaret Whiting)
TTITLE15=Tonda Wanda Hoy
TTITLE16=Who's Sorry Now
TTITLE17=Wham! Bam! Thank You, Ma'am!
TTITLE18=The Peddler's Serenade
TTITLE19=If
TTITLE20=Beside You
TTITLE21=I Love The Way You Say Goodnight
TTITLE22=You And Your Beautiful Eyes
EXTD=
EXTT0=
EXTT1=
EXTT2=
EXTT3=
EXTT4=
EXTT5=
EXTT6=
EXTT7=
EXTT8=
EXTT9=
EXTT10=
EXTT11=
EXTT12=
EXTT13=
EXTT14=
EXTT15=
EXTT16=
EXTT17=
EXTT18=
EXTT19=
EXTT20=
EXTT21=
EXTT22=
PLAYORDER=
